<mxfile host="app.diagrams.net" modified="2024-03-06T08:39:52.989Z" agent="Mozilla/5.0 (Windows NT 10.0; Win64; x64) AppleWebKit/537.36 (KHTML, like Gecko) Chrome/122.0.0.0 Safari/537.36" version="24.0.2" etag="EBOOw9n4cEKSSchrazPR" type="github">
  <diagram name="第 1 页" id="Ek_R21i5yQO-FQG7ZjsO">
    <mxGraphModel>
      <root>
        <mxCell id="0" />
        <mxCell id="1" parent="0" />
      </root>
    </mxGraphModel>
  </diagram>
</mxfile>
